<svg xmlns="http://www.w3.org/2000/svg" xmlns:xlink="http://www.w3.org/1999/xlink" xmlns:inkscape="http://www.inkscape.org/namespaces/inkscape" version="1.1" width="1417.32" height="1417.32" viewBox="0 0 1417.32 1417.32">
<defs>
<clipPath id="clip_1">
<path transform="matrix(1,0,0,-1,0,1417.32)" d="M0 1417.323H1417.323V0H0Z"/>
</clipPath>
</defs>
<g inkscape:groupmode="layer" inkscape:label="Camada 1">
<g clip-path="url(#clip_1)">
<path transform="matrix(1,0,0,-1,695.1173,777.82626)" d="M0 0C-4.463 1.524-9.117 2.835-13.203 4.321-26.849 9.281-40.306 14.741-53.002 21.805-64.476 28.19-75.895 34.737-86.906 41.878-104.788 53.475-120.777 67.402-135.122 83.197-149.79 99.346-161.859 117.216-170.937 137.072-176.673 149.618-180.909 162.645-183.985 176.109-188.73 196.886-189.782 217.882-188.562 239.063-188.418 241.561-188.096 244.049-187.788 246.875-187.723 247.478-187.059 247.818-186.532 247.519-186.01 247.224-185.566 246.968-185.098 246.689-169.505 237.382-155.873 225.404-139.802 217.075-124.368 209.076-108.853 201.168-92.986 194.088-77.597 187.221-61.838 181.125-46.016 175.303-29.943 169.389-13.562 164.317 2.621 158.693 11.868 155.48 21.41 153.633 30.912 151.431 52.069 146.528 71.11 137.49 84.91 119.841 91.343 111.614 95.761 102.327 97.335 91.982 98.379 85.123 99.434 78.145 99.098 71.198 99.074 70.694 99.03 70.2 98.982 69.67 98.544 64.865 100.588 62.644 105.459 63.219 110.434 63.806 114.272 66.519 117.926 69.623 124.387 75.114 129.34 81.896 134.183 88.758 140.568 97.807 147.529 106.28 156.58 112.875 165.893 119.661 176.202 122.674 187.568 120.743 196.923 119.154 204.793 114.208 211.907 108.108 214.866 105.57 217.594 102.76 220.393 100.038 221.71 98.758 221.767 97.868 219.676 97.244 211.09 94.679 202.875 91.278 195.661 85.826 188.575 80.471 184.236 73.648 183.001 64.581 181.418 52.957 179.446 41.356 176.967 29.891 173.772 15.11 169.28 .65 162.688-13 155.21-28.484 145.677-42.544 132.226-53.596 121.306-62.569 108.941-68.566 95.335-72.442 83.032-75.947 70.584-75.507 58.082-75.29 40.511-74.984 22.971-75.697 5.518-77.656-8.086-79.183-21.625-81.34-34.426-86.556-44.07-90.485-52.755-96.08-60.901-102.504-72.571-111.706-82.684-122.448-91.732-134.207-93.748-136.829-95.688-139.516-97.538-142.258-99.539-145.224-99.754-145.116-103.546-142.96-111.104-138.661-118.007-133.267-123.83-126.809-129.396-120.636-133.953-113.766-137.035-105.947-140.282-97.71-140.539-89.121-139.388-80.55-138.634-74.939-136.918-69.457-135.625-63.919-135.206-62.125-134.278-61.124-132.273-60.66-123.007-58.517-113.627-56.661-104.597-53.747-90.425-49.174-76.436-44.004-62.49-38.769-49.577-33.922-37.295-27.625-25.811-20.037-17.416-14.49-9.685-7.937-1.681-1.803-1.275-1.419-.509-.684 0 0"/>
<path transform="matrix(1,0,0,-1,815.9309,501.74214)" d="M0 0C-2.29-9.661-5.077-19.239-6.711-29.01-8.419-39.23-9.717-49.621-9.928-59.964-10.226-74.505-9.974-89.122-8.786-103.611-7.866-114.828-5.616-126.005-3.1-137.003-.572-148.051 3.052-158.846 6.09-169.781 6.401-170.898 6.449-172.547 5.841-173.385 1.012-180.049-4.002-186.579-8.979-193.135-8.982-193.138-8.984-193.141-8.986-193.144-9.385-193.671-10.226-193.388-10.224-192.726-10.212-189.788-10.168-187.069-10.237-184.353-10.746-164.425-17.064-146.879-31.779-132.943-40.705-124.49-51.115-118.283-62.712-114.286-69.597-111.913-76.697-110.143-83.752-108.299-85.588-107.819-85.839-106.977-85.58-105.411-81.253-79.247-69.043-56.987-51.814-37.217-37.926-21.281-21.808-7.955-4.07 3.462-2.663 4.368-1.17 5.141 .295 5.957 .822 6.251 1.446 5.776 1.298 5.192 .861 3.463 .411 1.736 0 0"/>
<path transform="matrix(1,0,0,-1,510.6201,312.7942)" d="M0 0C-9.407 23.539-1.157 47.471 22.382 56.879 31.555 60.545 40.351 60.984 47.71 58.926 56.638 56.47 63.707 50.325 68.235 41.881L48.675 34.064C44.854 40.739 37.164 43.946 28.764 40.589 15.945 35.466 14.15 22.317 19.893 7.95 25.679-6.527 37.168-14.111 48.882-9.429 57.613-5.94 61.151 1.882 58.988 9.861L78.549 17.678C81.132 9.611 80.467 1.014 77.127-6.344 73.39-14.63 66.559-20.949 55.397-25.41 32.189-34.685 9.452-23.65 0 0"/>
<path transform="matrix(1,0,0,-1,636.9055,228.5393)" d="M0 0 64.252 5.648 65.773-11.66 22.504-15.463 23.838-30.637 60.942-27.376 62.381-43.735 25.276-46.996 26.87-65.134 70.85-61.268 72.414-79.05 7.45-84.76Z"/>
<path transform="matrix(1,0,0,-1,773.6261,226.4956)" d="M0 0 20.75-4.263 36.865-51.188C37.668-53.783 40.398-62.97 40.398-62.97L40.631-63.018C40.631-63.018 42.458-52.945 43.056-50.031L51.175-10.513 71.341-14.656 54.219-98.004 33.469-93.741 17.467-47.446C16.523-44.944 13.82-35.034 13.82-35.034L13.587-34.986C13.587-34.986 11.617-45.759 11.019-48.673L3.044-87.491-17.123-83.348Z"/>
<path transform="matrix(1,0,0,-1,924.3506,292.92884)" d="M0 0-21.76 11.798-13.252 27.49 48.994-6.258 40.487-21.95 18.517-10.039-13.53-69.147-32.046-59.108Z"/>
<path transform="matrix(1,0,0,-1,1028.9282,393.77943)" d="M0 0C5.905-5.876 11.713-6.114 16.245-1.559 20.611 2.828 20.849 8.803 15.112 14.512L3.555 26.012-11.219 11.165ZM.376 52.681 29.227 23.971C41.206 12.051 44.188-3.173 33.024-14.393 26.056-21.395 17.477-23.099 8.041-18.578L7.789-18.831C11.256-25.807 10.682-31.784 5.565-38.613-1.06-47.802-9.459-54.555-8.106-57.413L-8.861-58.172-23.371-43.733C-24.05-41.21-16.745-34.376-11.714-27.463-6.932-21.139-6.779-15.248-13.19-8.869L-22.216 .113-44.714-22.495-59.645-7.636Z"/>
<path transform="matrix(1,0,0,-1,1095.8873,515.19949)" d="M0 0 15.151 15.35C18.367 18.68 24.194 23.941 24.194 23.941L24.083 24.151C24.083 24.151 16.408 22.357 11.851 21.547L-9.398 17.647ZM38.648 43.638 48.829 24.521-11.843-42.577-22.247-23.039-11.047-11.411-25.032 14.849-40.876 11.94-50.833 30.638Z"/>
<path transform="matrix(1,0,0,-1,1180.4655,582.2037)" d="M0 0 4.308-20.62-61.513-34.371-53.701-71.767-71.176-75.417-83.296-17.402Z"/>
<path transform="matrix(1,0,0,-1,1119.4022,798.69699)" d="M0 0C-3.036-13.467 3.868-22.344 19.076-25.773 34.169-29.176 45.57-24.061 48.476-11.175L51.25 1.131 2.723 12.074ZM73.066 17.806 65.082-17.603C59.899-40.59 39.815-52.287 14.391-46.554-.238-43.256-10.811-35.504-15.799-24.619-19.209-17.018-19.995-8.058-17.639 2.391L-9.943 36.523Z"/>
<path transform="matrix(1,0,0,-1,1082.3187,950.931)" d="M0 0C13.334-7.847 27.032-8.037 34.034 3.861 40.976 15.656 34.28 27.744 20.946 35.591 7.613 43.438-6.103 43.363-13.045 31.567-20.047 19.67-13.334 7.847 0 0M31.812 54.053C53.761 41.135 61.8 17.486 48.761-4.669 35.662-26.926 11.084-31.38-10.865-18.462-32.815-5.544-40.853 18.105-27.754 40.362-14.716 62.517 9.862 66.971 31.812 54.053"/>
<path transform="matrix(1,0,0,-1,941.4135,1073.0368)" d="M0 0 16.745-13.594C20.371-16.472 26.171-21.762 26.171-21.762L26.369-21.631C26.369-21.631 23.84-14.167 22.594-9.709L16.654 11.062ZM47.176-34.241 29.134-46.226-43.523 7.664-25.085 19.912-12.427 9.89 12.356 26.352 7.925 41.839 25.571 53.56Z"/>
<path transform="matrix(1,0,0,-1,898.3849,1158.4441)" d="M0 0-20.826-6.768-47.295 31.556C-51.092 37.08-55.664 44.604-55.664 44.604L-55.891 44.53C-55.891 44.53-55.243 35.606-54.991 29.055L-53.762-17.471-74.022-24.055-73.722 65.515-53.01 72.245Z"/>
<path transform="matrix(1,0,0,-1,760.5286,1191.7987)" d="M0 0-20.997-1.668-27.733 83.153-6.736 84.821Z"/>
<path transform="matrix(1,0,0,-1,675.4951,1194.4253)" d="M0 0-21.641 3.33-28.028 49.464C-28.933 56.105-29.629 64.881-29.629 64.881L-29.865 64.918C-29.865 64.918-33.303 56.657-36.027 50.695L-55.869 8.597-76.923 11.836-36.342 91.68-14.817 88.368Z"/>
<path transform="matrix(1,0,0,-1,525.1988,1097.4724)" d="M0 0-2.646-21.405C-3.162-26.005-4.572-33.728-4.572-33.728L-4.355-33.827C-4.355-33.827 .631-27.724 3.75-24.303L18.21-8.253ZM-4.014-58.153-23.741-49.212-16.581 40.963 3.58 31.826 1.795 15.78 28.894 3.498 39.675 15.467 58.969 6.722Z"/>
<path transform="matrix(1,0,0,-1,414.673,1095.4441)" d="M0 0-20.823 19.198-3.186 53.602C-.693 58.588 6.376 71.17 6.376 71.17L6.201 71.332C6.201 71.332-5.768 63.266-10.448 60.297L-43.396 40.011-64.395 59.371-6.717 121.928 7.457 108.86-21.584 77.362C-23.923 74.825-33.382 65.093-33.382 65.093L-33.206 64.932C-33.206 64.932-22.388 72.277-19.591 73.906L19.268 97.97 32.042 86.192 11.2 45.68C9.802 42.759 3.277 31.294 3.277 31.294L3.453 31.132C3.453 31.132 12.467 41.436 14.806 43.973L43.766 75.383 57.677 62.556Z"/>
<path transform="matrix(1,0,0,-1,304.9343,976.03)" d="M0 0-31.891 56.067-16.788 64.658 4.688 26.9 17.929 34.432-.488 66.81 13.788 74.93 32.205 42.552 48.031 51.554 26.202 89.932 41.719 98.758 73.963 42.07Z"/>
<path transform="matrix(1,0,0,-1,246.2118,852.27938)" d="M0 0-4.688 20.659 31.393 54.718C33.425 56.521 40.664 62.801 40.664 62.801L40.612 63.033C40.612 63.033 30.684 60.536 27.782 59.878L-11.562 50.95-16.118 71.028 66.864 89.859 71.552 69.2 35.998 35.505C34.109 33.612 26.199 27.058 26.199 27.058L26.252 26.826C26.252 26.826 36.877 29.481 39.778 30.139L78.426 38.909 82.981 18.831Z"/>
<path transform="matrix(1,0,0,-1,244.3359,687.71408)" d="M0 0-1.67-24.698-19.482-23.493-14.703 47.157 3.108 45.952 1.422 21.017 68.51 16.479 67.089-4.538Z"/>
<path transform="matrix(1,0,0,-1,303.9874,534.7592)" d="M0 0C-14.491 5.418-28.013 3.233-32.847-9.697-37.641-22.515-28.954-33.26-14.463-38.678 .027-44.097 13.521-41.647 18.315-28.828 23.149-15.898 14.49-5.419 0 0M-21.966-58.742C-45.819-49.822-57.832-27.924-48.828-3.848-39.785 20.34-16.352 28.983 7.502 20.063 31.355 11.144 43.369-10.754 34.324-34.942 25.321-59.018 1.888-67.661-21.966-58.742"/>
<path transform="matrix(1,0,0,-1,382.6774,418.59169)" d="M0 0 22.319 23.446 34.387 11.958 12.068-11.488Z"/>
</g>
</g>
</svg>
