<svg xmlns="http://www.w3.org/2000/svg" xmlns:xlink="http://www.w3.org/1999/xlink" xmlns:inkscape="http://www.inkscape.org/namespaces/inkscape" version="1.1" width="2834.65" height="850.394" viewBox="0 0 2834.65 850.394">
<defs>
<clipPath id="clip_1">
<path transform="matrix(1,0,0,-1,0,850.394)" d="M0 850.394H2834.646V0H0Z"/>
</clipPath>
</defs>
<g inkscape:groupmode="layer" inkscape:label="Camada 1">
<g clip-path="url(#clip_1)">
<path transform="matrix(1,0,0,-1,327.4044,511.3335)" d="M0 0C-5.588 1.908-11.415 3.55-16.53 5.409-33.616 11.62-50.465 18.456-66.36 27.301-80.726 35.295-95.023 43.491-108.809 52.432-131.198 66.952-151.216 84.389-169.177 104.165-187.542 124.385-202.652 146.758-214.019 171.619-221.201 187.326-226.504 203.637-230.355 220.494-236.296 246.507-237.614 272.795-236.085 299.315-235.905 302.442-235.502 305.557-235.117 309.096-235.035 309.851-234.204 310.276-233.544 309.902-232.891 309.532-232.334 309.212-231.749 308.862-212.226 297.21-195.158 282.213-175.037 271.785-155.713 261.77-136.287 251.869-116.421 243.004-97.153 234.407-77.423 226.774-57.613 219.485-37.489 212.08-16.98 205.73 3.281 198.689 14.859 194.666 26.806 192.353 38.703 189.596 65.193 183.457 89.032 172.141 106.31 150.045 114.364 139.744 119.895 128.117 121.866 115.164 123.173 106.576 124.495 97.839 124.074 89.142 124.044 88.511 123.989 87.892 123.929 87.229 123.381 81.213 125.939 78.432 132.038 79.152 138.266 79.887 143.072 83.283 147.647 87.171 155.737 94.046 161.938 102.536 168.001 111.129 175.995 122.458 184.711 133.066 196.043 141.323 207.703 149.819 220.61 153.592 234.841 151.174 246.554 149.184 256.407 142.992 265.314 135.355 269.02 132.177 272.434 128.658 275.939 125.251 277.588 123.648 277.66 122.534 275.041 121.752 264.292 118.541 254.005 114.283 244.974 107.458 236.102 100.752 230.67 92.21 229.124 80.858 227.141 66.304 224.672 51.779 221.569 37.425 217.568 18.918 211.944 .814 203.69-16.277 194.328-35.663 182.393-53.266 165.551-67.104 151.879-78.338 136.398-85.847 119.362-90.7 103.958-95.088 88.374-94.538 72.721-94.265 50.721-93.882 28.761-94.774 6.909-97.227-10.123-99.139-27.075-101.841-43.102-108.371-55.178-113.29-66.051-120.295-76.251-128.338-90.861-139.859-103.523-153.308-114.851-168.032-117.376-171.314-119.805-174.678-122.121-178.111-124.626-181.825-124.895-181.69-129.643-178.99-139.106-173.608-147.748-166.855-155.039-158.77-162.008-151.041-167.713-142.438-171.572-132.649-175.638-122.335-175.96-111.583-174.518-100.851-173.574-93.826-171.426-86.962-169.807-80.029-169.282-77.782-168.121-76.529-165.61-75.948-154.008-73.266-142.265-70.941-130.958-67.293-113.215-61.567-95.701-55.095-78.239-48.54-62.072-42.471-46.694-34.587-32.316-25.087-21.806-18.141-12.126-9.937-2.104-2.257-1.596-1.776-.637-.856 0 0" fill="#040505"/>
<path transform="matrix(1,0,0,-1,478.6669,165.6673)" d="M0 0C-2.868-12.095-6.357-24.088-8.402-36.322-10.541-49.117-12.166-62.127-12.431-75.076-12.803-93.283-12.488-111.584-11-129.724-9.848-143.768-7.032-157.762-3.881-171.533-.716-185.365 3.821-198.881 7.625-212.572 8.014-213.97 8.074-216.035 7.313-217.084 1.267-225.427-5.011-233.603-11.242-241.812-11.245-241.815-11.248-241.819-11.251-241.823-11.751-242.483-12.804-242.128-12.8-241.299-12.786-237.621-12.731-234.216-12.818-230.815-13.455-205.866-21.364-183.898-39.789-166.449-50.964-155.865-63.998-148.094-78.518-143.09-87.138-140.119-96.028-137.902-104.861-135.594-107.159-134.993-107.473-133.939-107.149-131.979-101.731-99.219-86.443-71.349-64.873-46.597-47.485-26.645-27.305-9.96-5.096 4.334-3.334 5.469-1.465 6.436 .37 7.459 1.029 7.826 1.81 7.232 1.625 6.501 1.077 4.335 .515 2.173 0 0" fill="#040505"/>
<path transform="matrix(1,0,0,-1,684.538,425.52168)" d="M0 0V.325C0 32.678 24.388 59.179 59.342 59.179 76.414 59.179 87.957 54.627 97.387 47.636 99.988 45.685 102.264 42.108 102.264 37.718 102.264 30.891 96.737 25.525 89.908 25.525 86.494 25.525 84.218 26.826 82.429 27.963 75.438 33.166 68.121 36.093 59.18 36.093 39.996 36.093 26.176 20.16 26.176 .65V.325C26.176-19.186 39.671-35.444 59.18-35.444 69.748-35.444 76.739-32.192 83.893-26.502 85.843-24.876 88.444-23.739 91.371-23.739 97.712-23.739 103.077-28.941 103.077-35.282 103.077-39.184 101.126-42.272 98.849-44.224 88.607-53.165 76.576-58.53 58.367-58.53 24.875-58.53 0-32.679 0 0" fill="#030404"/>
<path transform="matrix(1,0,0,-1,798.6762,469.58329)" d="M0 0V88.771C0 95.763 5.528 101.29 12.519 101.29H75.6C81.779 101.29 86.819 96.25 86.819 90.071 86.819 83.894 81.779 79.016 75.6 79.016H24.875V55.929H68.284C74.463 55.929 79.503 50.889 79.503 44.712 79.503 38.533 74.463 33.655 68.284 33.655H24.875V9.755H76.414C82.592 9.755 87.632 4.715 87.632-1.463 87.632-7.64 82.592-12.518 76.414-12.518H12.519C5.528-12.518 0-6.99 0 0" fill="#030404"/>
<path transform="matrix(1,0,0,-1,896.7201,380.1619)" d="M0 0C0 6.991 5.528 12.519 12.519 12.519H15.12C21.135 12.519 24.713 9.593 28.127 5.203L76.414-58.206V.488C76.414 7.316 81.941 12.844 88.769 12.844 95.598 12.844 101.126 7.316 101.126 .488V-90.071C101.126-97.062 95.598-102.589 88.607-102.589H87.794C81.779-102.589 78.202-99.664 74.788-95.274L24.713-29.589V-90.559C24.713-97.387 19.185-102.914 12.356-102.914 5.528-102.914 0-97.387 0-90.559Z" fill="#030404"/>
<path transform="matrix(1,0,0,-1,1040.7738,391.37968)" d="M0 0H-24.062C-30.402 0-35.605 5.203-35.605 11.543-35.605 17.884-30.402 23.087-24.062 23.087H49.1C55.441 23.087 60.644 17.884 60.644 11.543 60.644 5.203 55.441 0 49.1 0H25.038V-79.179C25.038-86.169 19.51-91.697 12.519-91.697 5.529-91.697 0-86.169 0-79.179Z" fill="#030404"/>
<path transform="matrix(1,0,0,-1,1159.1405,423.57148)" d="M0 0C12.193 0 19.184 6.504 19.184 16.096V16.421C19.184 27.152 11.705 32.679-.489 32.679H-25.363V0ZM-50.401 42.759C-50.401 49.751-44.873 55.278-37.882 55.278H1.625C16.095 55.278 27.313 51.213 34.792 43.735 41.132 37.394 44.547 28.452 44.547 17.722V17.397C44.547-.488 35.605-11.544 21.786-17.234L39.182-38.369C41.621-41.459 43.246-44.06 43.246-47.962 43.246-54.952 37.393-59.505 31.378-59.505 25.688-59.505 21.948-56.742 19.022-53.002L-5.365-22.112H-25.363V-46.987C-25.363-53.977-30.891-59.505-37.882-59.505-44.873-59.505-50.401-53.977-50.401-46.987Z" fill="#030404"/>
<path transform="matrix(1,0,0,-1,1279.4564,434.46519)" d="M0 0-15.77 37.558-31.541 0ZM-70.398-31.541-30.728 58.043C-27.964 64.221-22.924 67.96-16.095 67.96H-14.633C-7.804 67.96-2.926 64.221-.162 58.043L39.507-31.541C40.32-33.328 40.808-34.956 40.808-36.581 40.808-43.246 35.606-48.611 28.939-48.611 23.087-48.611 19.184-45.198 16.908-39.996L9.267-22.111H-40.808L-48.775-40.808C-50.888-45.686-55.115-48.611-60.318-48.611-66.821-48.611-71.861-43.409-71.861-36.906-71.861-35.118-71.211-33.328-70.398-31.541" fill="#030404"/>
<path transform="matrix(1,0,0,-1,1329.0497,379.83689)" d="M0 0C0 6.991 5.528 12.519 12.519 12.519 19.51 12.519 25.038 6.991 25.038 0V-79.504H71.374C77.714-79.504 82.754-84.544 82.754-90.884 82.754-97.224 77.714-102.264 71.374-102.264H12.519C5.528-102.264 0-96.737 0-89.746Z" fill="#030404"/>
<path transform="matrix(1,0,0,-1,1501.0667,459.50309)" d="M0 0C20.485 0 34.304 13.82 34.304 33.981V34.306C34.304 54.467 20.485 68.611 0 68.611H-19.347V0ZM-44.385 78.691C-44.385 85.682-38.857 91.21-31.866 91.21H0C35.768 91.21 60.481 66.66 60.481 34.632V34.306C60.481 2.277 35.768-22.598 0-22.598H-31.866C-38.857-22.598-44.385-17.07-44.385-10.08Z" fill="#030404"/>
<path transform="matrix(1,0,0,-1,1662.6793,425.52168)" d="M0 0V.325C0 19.834-14.306 36.093-34.466 36.093-54.626 36.093-68.609 20.16-68.609 .65V.325C-68.609-19.186-54.301-35.444-34.141-35.444-13.981-35.444 0-19.511 0 0M-94.784 0V.325C-94.784 32.678-69.259 59.179-34.141 59.179 .977 59.179 26.176 33.003 26.176 .65V.325C26.176-32.029 .65-58.53-34.466-58.53-69.584-58.53-94.784-32.354-94.784 0" fill="#030404"/>
<path transform="matrix(1,0,0,-1,1814.0524,440.31788)" d="M0 0-26.176 58.205-52.351 0ZM-80.477-33.328-34.303 67.635C-32.678 71.211-30.24 73.325-26.176 73.325H-25.526C-21.623 73.325-19.021 71.211-17.558 67.635L28.615-33.166C29.103-34.305 29.428-35.443 29.428-36.418 29.428-39.833 26.663-42.596 23.25-42.596 20.16-42.596 18.048-40.483 16.908-37.881L5.04-11.705H-57.391L-69.259-38.206C-70.397-40.971-72.511-42.596-75.437-42.596-78.689-42.596-81.289-39.996-81.289-36.743-81.289-35.768-81.127-34.631-80.477-33.328" fill="#030404"/>
<path transform="matrix(1,0,0,-1,1878.7669,478.0363)" d="M0 0-43.896 101.288C-44.384 102.264-44.546 103.077-44.546 104.216-44.546 107.467-41.621 110.556-38.043 110.556-34.793 110.556-32.516 108.442-31.378 105.678L7.967 11.38 47.474 106.003C48.611 108.28 50.888 110.556 53.814 110.556 57.391 110.556 60.156 107.629 60.156 104.378 60.156 103.402 59.993 102.589 59.668 101.777L15.608 0C14.145-3.252 11.868-5.365 8.13-5.365H7.48C3.74-5.365 1.3-3.252 0 0" fill="#030404"/>
<path transform="matrix(1,0,0,-1,1953.397,373.9832)" d="M0 0C0 3.576 2.927 6.503 6.342 6.503 9.918 6.503 12.845 3.576 12.845 0V-102.428C12.845-106.005 9.918-108.931 6.342-108.931 2.927-108.931 0-106.005 0-102.428Z" fill="#030404"/>
<path transform="matrix(1,0,0,-1,2025.2583,478.0363)" d="M0 0-43.896 101.288C-44.384 102.264-44.546 103.077-44.546 104.216-44.546 107.467-41.621 110.556-38.043 110.556-34.793 110.556-32.516 108.442-31.378 105.678L7.967 11.38 47.473 106.003C48.611 108.28 50.888 110.556 53.814 110.556 57.391 110.556 60.156 107.629 60.156 104.378 60.156 103.402 59.993 102.589 59.668 101.777L15.608 0C14.145-3.252 11.868-5.365 8.13-5.365H7.48C3.74-5.365 1.3-3.252 0 0" fill="#030404"/>
<path transform="matrix(1,0,0,-1,2157.2796,440.31788)" d="M0 0-26.176 58.205-52.351 0ZM-80.477-33.328-34.303 67.635C-32.678 71.211-30.24 73.325-26.176 73.325H-25.525C-21.623 73.325-19.021 71.211-17.558 67.635L28.615-33.166C29.103-34.305 29.428-35.443 29.428-36.418 29.428-39.833 26.663-42.596 23.25-42.596 20.16-42.596 18.048-40.483 16.908-37.881L5.04-11.705H-57.391L-69.259-38.206C-70.396-40.971-72.511-42.596-75.437-42.596-78.689-42.596-81.289-39.996-81.289-36.743-81.289-35.768-81.127-34.631-80.477-33.328" fill="#030404"/>
<path transform="matrix(1,0,0,-1,2200.373,374.1457)" d="M0 0C0 3.414 2.927 6.34 6.34 6.34H7.805C10.568 6.34 12.518 4.877 13.82 2.926L54.466-58.205 95.11 2.926C96.412 5.039 98.524 6.34 101.127 6.34H102.589C106.002 6.34 108.93 3.414 108.93 0V-102.265C108.93-105.843 106.002-108.768 102.589-108.768 99.012-108.768 96.087-105.68 96.087-102.265V-17.397L59.668-70.887C58.204-73 56.579-74.138 54.303-74.138 52.026-74.138 50.238-73 48.774-70.887L12.518-17.559V-102.428C12.518-106.005 9.755-108.768 6.178-108.768 2.765-108.768 0-106.005 0-102.428Z" fill="#030404"/>
<path transform="matrix(1,0,0,-1,2330.6087,475.59849)" d="M0 0V100.802C0 104.379 2.927 107.305 6.34 107.305H77.064C80.316 107.305 82.917 104.704 82.917 101.453 82.917 98.2 80.316 95.599 77.064 95.599H12.845V56.742H69.749C72.999 56.742 75.601 53.978 75.601 50.889 75.601 47.636 72.999 45.036 69.749 45.036H12.845V5.203H77.876C81.129 5.203 83.729 2.602 83.729-.65 83.729-3.9 81.129-6.503 77.876-6.503H6.34C2.927-6.503 0-3.575 0 0" fill="#030404"/>
<path transform="matrix(1,0,0,-1,2428.6517,374.1457)" d="M0 0C0 3.414 2.927 6.34 6.34 6.34H8.13C11.055 6.34 12.845 4.877 14.633 2.6L83.729-85.52V.325C83.729 3.739 86.494 6.665 90.069 6.665 93.484 6.665 96.249 3.739 96.249 .325V-102.428C96.249-105.843 93.809-108.443 90.394-108.443H89.744C86.981-108.443 85.029-106.818 83.079-104.541L12.52-14.308V-102.428C12.52-105.843 9.755-108.768 6.178-108.768 2.765-108.768 0-105.843 0-102.428Z" fill="#030404"/>
<path transform="matrix(1,0,0,-1,2576.2847,380.1619)" d="M0 0H-33.003C-36.256 0-39.021 2.601-39.021 5.853-39.021 9.105-36.256 11.869-33.003 11.869H46.011C49.261 11.869 52.026 9.105 52.026 5.853 52.026 2.601 49.261 0 46.011 0H13.006V-96.249C13.006-99.827 10.08-102.752 6.503-102.752 2.925-102.752 0-99.827 0-96.249Z" fill="#030404"/>
<path transform="matrix(1,0,0,-1,2730.581,425.52168)" d="M0 0V.325C0 26.176-18.86 47.311-44.873 47.311-70.886 47.311-89.419 26.501-89.419 .65V.325C-89.419-25.526-70.561-46.662-44.548-46.662-18.535-46.662 0-25.852 0 0M-102.752 0V.325C-102.752 31.703-79.177 59.179-44.548 59.179-9.918 59.179 13.331 32.028 13.331 .65V.325C13.331-31.054-10.243-58.53-44.873-58.53-79.502-58.53-102.752-31.379-102.752 0" fill="#030404"/>
</g>
</g>
</svg>
